# xmcd CD database file
#
# Track frame offsets:
#	150
#	19878
#	39824
#	59323
#	76760
#	93956
#	110932
#	134588
#	154784
#	174258
#	196201
#
# Disc length: 2841 seconds
#
# Revision: 0
# Processed by: cddbd v1.5.1PL0 Copyright (c) Steve Scherf et al.
# Submitted via: CDex 1.51
#
DISCID=850b170b
DTITLE=Jeff Kashiwa - Peace of Mind
DYEAR=2004
DGENRE=Jazz
TTITLE0=Wait and See
TTITLE1=Here and Now
TTITLE2=Ecstasy
TTITLE3=Homeward Bound
TTITLE4=Peace of Mind
TTITLE5=My Fantasy
TTITLE6=Stay With Me
TTITLE7=Deep Blue
TTITLE8=Stride
TTITLE9=Falling
TTITLE10=My Lovin' (You're Never Gonna Get It)
EXTD=YEAR: 2004
EXTT0=
EXTT1=
EXTT2=
EXTT3=
EXTT4=
EXTT5=
EXTT6=
EXTT7=
EXTT8=
EXTT9=
EXTT10=
PLAYORDER=
